<svg width="19" height="17" viewBox="0 0 19 17" fill="none" xmlns="http://www.w3.org/2000/svg">
<path fill-rule="evenodd" clip-rule="evenodd" d="M9.49986 2.21569C8.54247 0.872578 6.99872 0 5.25866 0C2.35643 0 0 2.42824 0 5.41845C0 7.64257 1.47042 9.98471 3.29102 11.9644C5.88984 14.7897 9.13906 16.893 9.13906 16.893C9.3596 17.0357 9.64042 17.0357 9.86094 16.893C9.86094 16.893 13.11 14.7898 15.709 11.9644C17.5296 9.98499 19 7.64265 19 5.41845C19 2.42804 16.6434 0 13.7413 0C12.0015 0 10.4577 0.872578 9.50014 2.21569H9.49986ZM8.87218 3.89855C8.97593 4.16153 9.22433 4.33353 9.49986 4.33353C9.7754 4.33353 10.0238 4.16154 10.1276 3.89855C10.7104 2.43247 12.109 1.39836 13.7409 1.39836C15.8947 1.39836 17.6424 3.19937 17.6424 5.41845C17.6424 7.33213 16.29 9.29955 14.7233 11.0019C12.7514 13.1456 10.3886 14.853 9.4999 15.4647C8.61095 14.8529 6.2475 13.1455 4.27653 11.0019C2.70979 9.29939 1.35736 7.33201 1.35736 5.41845C1.35736 3.19917 3.10525 1.39836 5.25889 1.39836C6.89078 1.39836 8.28939 2.43247 8.87225 3.89855H8.87218Z" fill="white"/>
</svg>
