<svg width="19" height="17" viewBox="0 0 19 17" fill="none" xmlns="http://www.w3.org/2000/svg">
<path fill-rule="evenodd" clip-rule="evenodd" d="M7.25916 0.497395C8.69318 -0.165798 10.3065 -0.165798 11.7408 0.497395L17.654 3.23218C18.5838 3.6623 19 4.59638 19 5.4487C19 6.30118 18.5838 7.2351 17.654 7.66538L16.3488 8.26886V12.5324C16.3488 13.6248 15.7936 14.6796 14.783 15.2317C14.1186 15.5947 13.2455 16.0315 12.3268 16.3793C11.419 16.7229 10.4137 17 9.5 17C8.5863 17 7.58101 16.7228 6.67306 16.3793C5.75447 16.0315 4.88144 15.5947 4.21702 15.2317C3.20625 14.6796 2.65117 13.6248 2.65117 12.5324V8.26886L1.346 7.66523L1.32558 7.65559V10.2437C1.32558 10.6048 1.02881 10.8976 0.662792 10.8976C0.296628 10.8976 0 10.6048 0 10.2437V5.44856C0 4.59624 0.416157 3.66216 1.346 3.23204L7.25916 0.497395ZM3.97671 8.88203V12.5327C3.97671 13.1979 4.31136 13.7887 4.85921 14.088C5.49257 14.4339 6.30686 14.8403 7.14793 15.1586C7.99963 15.481 8.82649 15.6926 9.49996 15.6926C10.1734 15.6926 11.0003 15.481 11.8521 15.1586C12.693 14.8403 13.5073 14.4339 14.1407 14.088C14.6885 13.7887 15.0232 13.1979 15.0232 12.5327V8.88218L11.7409 10.4002C10.3067 11.0635 8.69336 11.0635 7.25927 10.4002L3.97671 8.88203ZM1.90873 6.48131C1.55248 6.31653 1.32555 5.92348 1.32555 5.44885C1.32555 4.97423 1.55249 4.58117 1.90873 4.4164L7.82159 1.68162C8.89921 1.18319 10.1002 1.18319 11.1777 1.68162L17.0909 4.4164C17.4472 4.58118 17.6741 4.97438 17.6741 5.44885C17.6741 5.92348 17.4472 6.31668 17.0909 6.48145L11.1781 9.21624C10.1005 9.71451 8.89944 9.71451 7.82197 9.21624L1.90873 6.48131Z" fill="white"/>
</svg>
