<svg width="22" height="19" viewBox="0 0 22 19" fill="none" xmlns="http://www.w3.org/2000/svg">
<path d="M7.28083 6.3837H11.4681L11.4904 6.38286C11.6508 6.37087 11.773 6.23416 11.767 6.07345C11.7609 5.91261 11.6289 5.78552 11.4681 5.78552H7.28083L7.25851 5.78636C7.09809 5.79836 6.97602 5.93493 6.98202 6.09577C6.98802 6.25648 7.11999 6.3837 7.28083 6.3837Z" fill="#523A28" stroke="#523A28" stroke-width="0.5"/>
<path d="M7.28083 9.37418H10.2717L10.294 9.37334V9.37348C10.4545 9.36148 10.5767 9.22477 10.5707 9.06393C10.5647 8.90323 10.4326 8.776 10.2717 8.776H7.28083L7.25851 8.77684C7.09809 8.78884 6.97602 8.92555 6.98202 9.08625C6.98802 9.24709 7.11999 9.37432 7.28083 9.37418Z" fill="#523A28" stroke="#523A28" stroke-width="0.5"/>
<path d="M7.28083 12.3654H9.67354L9.69586 12.3646C9.85629 12.3526 9.97835 12.2158 9.97235 12.0551C9.96635 11.8944 9.83439 11.7672 9.67354 11.7672H7.28083L7.25851 11.768C7.09809 11.78 6.97602 11.9168 6.98202 12.0775C6.98802 12.2382 7.11999 12.3654 7.28083 12.3654Z" fill="#523A28" stroke="#523A28" stroke-width="0.5"/>
<path d="M20.3868 5.51016C20.9156 4.98119 21.1222 4.21031 20.9286 3.48782C20.735 2.76533 20.1707 2.20108 19.4482 2.00744C18.7258 1.81381 17.9549 2.02042 17.4259 2.54927L17.0031 2.97224C16.947 3.02832 16.9155 3.10435 16.9155 3.18373V4.15367L16.58 3.81831V3.81817C16.4614 3.70601 16.2757 3.70601 16.1571 3.81817L15.3564 4.61919V2.53171H15.3562C15.3555 2.13609 15.1985 1.7568 14.9191 1.47667C14.6398 1.19641 14.2609 1.03809 13.8653 1.03627L2.49633 1H2.49549C1.9612 1 1.46752 1.285 1.20036 1.7476C0.933214 2.21032 0.933214 2.78046 1.20036 3.24304C1.4675 3.70576 1.9612 3.99078 2.49549 3.99078C2.57501 3.9912 2.65159 3.95995 2.70795 3.90373C2.76445 3.84765 2.79612 3.77135 2.79612 3.69169C2.79612 3.61217 2.76445 3.53587 2.70795 3.47965C2.65159 3.42357 2.575 3.39218 2.49549 3.3926C2.25834 3.39204 2.03124 3.29746 1.86382 3.1295C1.69642 2.96155 1.60253 2.73403 1.60267 2.49686C1.60295 2.25971 1.69711 2.03246 1.86479 1.8648C2.03247 1.69712 2.25984 1.60282 2.497 1.60268C2.73401 1.6024 2.96155 1.69628 3.1295 1.86368C3.29745 2.03108 3.39218 2.25834 3.39274 2.49536V16.8516C3.39315 17.2481 3.55093 17.6281 3.83117 17.9085C4.11157 18.1889 4.4917 18.3465 4.88818 18.3469H5.1729C5.24739 18.347 5.32189 18.3424 5.39582 18.3332C5.42512 18.3424 5.45567 18.347 5.48636 18.3469H15.0572C15.6575 18.3473 16.2174 18.0449 16.5464 17.5428C16.8753 17.0407 16.929 16.4067 16.6891 15.8565C16.4491 15.3063 15.948 14.9142 15.3563 14.8135V10.5405L20.3868 5.51016ZM5.17307 17.7487C5.15564 17.7487 5.1382 17.7469 5.1209 17.7462C4.81721 17.7319 4.53069 17.6015 4.32045 17.3821C4.11023 17.1625 3.99235 16.8707 3.99109 16.5667V2.49544C3.99095 2.17319 3.88605 1.85959 3.692 1.60207L13.8635 1.63457H13.8634C14.1008 1.63569 14.3282 1.73055 14.4959 1.89864C14.6634 2.06674 14.7577 2.2944 14.7581 2.53182V5.21747L11.5046 8.47102C11.4337 8.54175 11.403 8.64302 11.4227 8.74109L11.8141 10.6991L10.6585 11.8547H10.6587C10.6023 11.9108 10.5706 11.9868 10.5706 12.0663C10.5705 12.1457 10.602 12.2219 10.6583 12.2781C10.7143 12.3342 10.7905 12.3657 10.87 12.3657C10.9494 12.3656 11.0254 12.3339 11.0815 12.2777L12.2371 11.1221L14.195 11.5135C14.2931 11.5332 14.3945 11.5025 14.4652 11.4316L14.7581 11.1387V14.7863H5.17302C5.09337 14.7859 5.01692 14.8173 4.96057 14.8734C4.90407 14.9296 4.8724 15.0059 4.8724 15.0854C4.8724 15.1651 4.90407 15.2414 4.96057 15.2974C5.01692 15.3537 5.09337 15.3849 5.17302 15.3845C5.48676 15.3841 5.78781 15.5085 6.0099 15.7302C6.23184 15.952 6.35656 16.2529 6.35656 16.5666C6.35656 16.8804 6.23184 17.1813 6.0099 17.4029C5.78781 17.6247 5.48679 17.749 5.17302 17.7486L5.17307 17.7487ZM16.2392 16.5667C16.2376 16.8797 16.1126 17.1795 15.8913 17.4009C15.67 17.6221 15.3702 17.7473 15.0572 17.7487H6.50309C6.79311 17.4233 6.95339 17.0026 6.95339 16.5667C6.95339 16.1307 6.7931 15.71 6.50309 15.3845H15.0572C15.3702 15.3861 15.67 15.5112 15.8914 15.7324C16.1128 15.9538 16.2378 16.2536 16.2392 16.5666L16.2392 16.5667ZM14.7581 10.2928L14.1553 10.8954L12.7454 10.6135L15.3111 8.0478C15.4267 7.9309 15.4262 7.74257 15.3098 7.62622C15.1936 7.50988 15.0052 7.50932 14.8883 7.62497L12.3226 10.1907L12.0406 8.78061L16.3686 4.45266L17.0032 5.08698C17.0887 5.17263 17.2173 5.19816 17.329 5.15185C17.4409 5.10567 17.5137 4.99658 17.5137 4.8755V3.30752L17.8491 2.97217C18.2269 2.5944 18.7775 2.44681 19.2936 2.58519C19.8096 2.72343 20.2126 3.12644 20.351 3.64259C20.4893 4.15859 20.3417 4.7092 19.9639 5.08696L14.7581 10.2928Z" fill="#523A28" stroke="#523A28" stroke-width="0.5"/>
</svg>
