<svg width="20" height="24" viewBox="0 0 20 24" fill="none" xmlns="http://www.w3.org/2000/svg">
<path d="M13.4849 21.8684H5.79838L5.41226 20.7052L4.9108 20.3642C3.2612 20.4293 4.09861 17.2304 3.90805 16.3531L3.4066 15.8516H2.23847L3.87797 12.5623C3.87797 10.3613 4.49963 8.13483 6.22947 6.65083L5.5576 5.91888C4.68985 6.71547 4.00707 7.69268 3.55749 8.78155C3.1079 9.87042 2.90243 11.0446 2.95546 12.2214L1 16.1273L1.45126 16.8544H2.95546C2.98551 18.3134 2.52922 21.051 4.58507 21.3318L4.98614 22.5251L5.46241 22.8711H13.9861L14.4875 22.3696V20.8654L13.4848 20.8656L13.4849 21.8684Z" fill="#D0B49F" stroke="#D0B49F" stroke-width="0.5"/>
<path d="M18.97 11.8405C18.9705 10.7236 18.736 9.61909 18.2815 8.5989C17.8272 7.57871 17.1631 6.66561 16.3326 5.91888L15.6607 6.66093C19.9778 10.3061 17.7716 17.887 12.2361 18.7345L12.4216 19.7373V19.7374C13.0201 19.6231 13.6038 19.4415 14.1615 19.1958C15.5972 18.575 16.8202 17.5479 17.6799 16.2411C18.5396 14.9342 18.9985 13.4045 19 11.8403L18.97 11.8405Z" fill="#D0B49F" stroke="#D0B49F" stroke-width="0.5"/>
<path d="M8.97218 6.32479V11.8401L9.47363 12.3415H12.482L12.9835 11.8401V6.32479H14.4877L14.8837 5.51261L11.3739 1H10.5566L7.04674 5.51261L7.46795 6.32479H8.97218ZM10.9778 2.12815L13.4598 5.32205H12.4819L11.9804 5.8235V11.3388H9.97492V5.8235L9.47346 5.32205H8.47072L10.9778 2.12815Z" fill="#D0B49F" stroke="#D0B49F" stroke-width="0.5"/>
<path d="M7.21709 10.8876L5.21143 11.8904L5.65767 12.7879L6.00367 12.6175C8.07951 21.4269 20.5695 14.6633 14.2918 8.10486L13.625 8.85193C18.8343 14.2572 8.05428 19.5468 6.96653 12.1412L7.67346 11.7851L7.21709 10.8876Z" fill="#D0B49F" stroke="#D0B49F" stroke-width="0.5"/>
</svg>
