<svg width="30" height="28" viewBox="0 0 30 28" fill="none" xmlns="http://www.w3.org/2000/svg">
<path d="M28.5095 8.20665L27.5885 7.28571C27.1166 6.81506 26.4773 6.55076 25.8107 6.55076C25.1442 6.55076 24.5049 6.81506 24.0329 7.28571L21.8349 9.48371V3.63168C21.8338 2.66884 21.4508 1.74575 20.77 1.06492C20.0891 0.384087 19.166 0.00110905 18.2032 0H9.89504C9.87828 0 9.86308 0.00798966 9.84649 0.00899535C9.78028 0.0131562 9.71482 0.0252553 9.6515 0.0450327C9.62504 0.0517695 9.59893 0.0598252 9.57328 0.0691694C9.48659 0.103764 9.40634 0.152681 9.33587 0.213878L0.279025 8.32649C0.223258 8.37801 0.17483 8.43695 0.135099 8.50165C0.124259 8.51841 0.114817 8.53551 0.105263 8.55316C0.0749148 8.60866 0.0510138 8.66745 0.0340262 8.72838C0.0308415 8.73983 0.0257012 8.75073 0.0228518 8.7619C0.00807541 8.8237 0.000408342 8.88699 0 8.95053V24.2484C0.00112381 25.2113 0.384107 26.1344 1.06494 26.8152C1.74576 27.496 2.66884 27.879 3.63168 27.8801H18.2031C19.1659 27.879 20.089 27.496 20.7699 26.8152C21.4507 26.1344 21.8337 25.2113 21.8348 24.2484V18.4372L28.5098 11.7625C28.9805 11.2905 29.2448 10.6511 29.2447 9.98449C29.2447 9.31792 28.9803 8.67857 28.5095 8.20665ZM26.4031 8.4707L27.3239 9.39175C27.4808 9.54909 27.569 9.76225 27.569 9.98449C27.5691 10.2067 27.481 10.4199 27.3241 10.5774L26.747 11.1548L24.6406 9.04847L25.2183 8.47075C25.3757 8.31411 25.5888 8.22618 25.8108 8.22617C26.0329 8.22616 26.2457 8.31407 26.4031 8.4707ZM16.8053 21.0965L13.9809 21.8113L14.6989 18.9904L23.4553 10.2335L25.5617 12.3399L16.8053 21.0965ZM7.85985 3.78633L9.05719 2.71359V6.15709C9.05656 6.67554 8.85034 7.17257 8.48374 7.53917C8.11714 7.90577 7.62011 8.11199 7.10167 8.11261H3.02994L7.85985 3.78633ZM20.1587 24.2484C20.1581 24.7669 19.9519 25.2639 19.5853 25.6305C19.2187 25.9971 18.7217 26.2033 18.2032 26.204H3.63179C3.11335 26.2033 2.61631 25.9971 2.24972 25.6305C1.88312 25.2639 1.67689 24.7669 1.67627 24.2484V9.78877H7.10172C8.06456 9.78766 8.98765 9.40469 9.66848 8.72385C10.3493 8.04302 10.7323 7.11993 10.7334 6.15709V1.67616H18.2035C18.7219 1.67678 19.219 1.88301 19.5856 2.2496C19.9522 2.6162 20.1584 3.11323 20.159 3.63168V11.1599L13.3509 17.9679C13.2443 18.0742 13.1684 18.2074 13.1314 18.3534L12.009 22.7623C11.9732 22.903 11.9745 23.0507 12.0129 23.1907C12.0514 23.3308 12.1255 23.4585 12.2282 23.5613C12.3308 23.6641 12.4584 23.7384 12.5984 23.777C12.7384 23.8156 12.8861 23.8172 13.0269 23.7815L17.4404 22.6646C17.5869 22.6276 17.7206 22.5516 17.8273 22.4447L20.1587 20.1134V24.2484Z" fill="#A47551"/>
</svg>
