<svg width="27" height="27" viewBox="0 0 27 27" fill="none" xmlns="http://www.w3.org/2000/svg">
<mask id="mask0_508_130" style="mask-type:luminance" maskUnits="userSpaceOnUse" x="0" y="0" width="27" height="27">
<path d="M27 0H0V27H27V0Z" fill="white"/>
</mask>
<g mask="url(#mask0_508_130)">
<path d="M8.94801 20.2373C9.15051 20.4272 9.26863 20.693 9.27707 20.9714C9.28551 21.2541 9.18004 21.5241 8.99019 21.7266C8.80035 21.9333 8.53457 22.0514 8.25191 22.0598C7.97347 22.0683 7.70348 21.9628 7.50098 21.773C7.04113 21.3426 6.62348 20.8744 6.24801 20.3723C6.07926 20.1487 6.00332 19.8703 6.04551 19.5919C6.08348 19.3134 6.23113 19.0645 6.45473 18.8958C6.67832 18.727 6.95676 18.6553 7.23519 18.6933C7.51363 18.7312 7.76254 18.8789 7.93129 19.1025C8.23504 19.5075 8.57676 19.8872 8.94801 20.2373Z" fill="#523A28"/>
<path d="M20.2163 15.6895C20.4483 15.8456 20.6129 16.0861 20.6677 16.3603C20.7225 16.6345 20.6635 16.9214 20.5074 17.1534C20.3555 17.3855 20.1108 17.55 19.8366 17.6048C19.5624 17.6597 19.2797 17.6006 19.0477 17.4445L14.4923 14.4091C14.2987 14.2796 14.1413 13.986 14.1413 13.7531V7.69922C14.1413 7.42078 14.2552 7.15078 14.4535 6.95672C14.6475 6.75844 14.9175 6.64453 15.196 6.64453C15.4786 6.64453 15.7444 6.75844 15.9427 6.95672C16.141 7.15078 16.2507 7.42078 16.2507 7.69922V12.6267C16.2507 12.8596 16.408 13.1532 16.6017 13.2823L20.2163 15.6895Z" fill="#523A28"/>
<path d="M4.07701 12.1019C4.28753 9.9478 5.42279 7.52497 7.26892 5.68265C9.36985 3.57749 12.2259 2.39624 15.1959 2.39624C18.1702 2.39624 21.0263 3.57749 23.1272 5.68265C25.2324 7.78358 26.4136 10.6397 26.4136 13.6139C26.4136 16.5839 25.2324 19.44 23.1272 21.5451C21.0263 23.6461 18.1702 24.8273 15.1959 24.8273C13.6983 24.8316 12.2091 24.5278 10.8253 23.9414C10.568 23.8359 10.3655 23.6292 10.26 23.3676C10.1545 23.1103 10.1588 22.8192 10.2642 22.5619C10.3739 22.3045 10.5806 22.0978 10.8422 21.9966C11.0995 21.8911 11.3906 21.8911 11.648 22.0008C12.7702 22.4775 13.9767 22.7222 15.1959 22.718C17.6133 22.718 19.9294 21.7603 21.638 20.0517C23.3424 18.3431 24.3042 16.027 24.3042 13.6139C24.3042 11.1966 23.3424 8.88046 21.638 7.17186C19.9294 5.46749 17.6133 4.50562 15.1959 4.50562C12.7828 4.50562 10.4667 5.46749 8.75814 7.17186C7.30014 8.62986 6.38889 10.5308 6.20157 12.1403C6.17457 12.3715 6.28679 12.4255 6.45175 12.2614L7.32376 11.3906C7.51782 11.1923 7.78782 11.0784 8.06626 11.0784C8.34892 11.0784 8.6147 11.1923 8.81298 11.3906C9.01126 11.5847 9.12095 11.8547 9.12095 12.1331C9.12095 12.4158 9.01126 12.6816 8.81298 12.8798L5.70925 15.9869C5.38018 16.3164 4.84567 16.3164 4.5166 15.9874L1.40907 12.8798C1.21079 12.6816 1.1011 12.4158 1.1011 12.1331C1.1011 11.8547 1.21079 11.5847 1.40907 11.3906C1.60735 11.1923 1.87735 11.0784 2.15579 11.0784C2.43423 11.0784 2.70423 11.1923 2.90251 11.3906L3.73698 12.2238C3.90193 12.3883 4.05423 12.3335 4.07701 12.1019Z" fill="#523A28"/>
</g>
</svg>
