<svg width="33" height="36" viewBox="0 0 33 36" fill="none" xmlns="http://www.w3.org/2000/svg">
<path d="M26.1879 10.2626C26.0754 10.5225 25.8227 10.6981 25.5418 10.6981L17.3464 10.6978C16.5879 10.6978 15.9699 10.0798 15.9699 9.3213V1.12585C15.9699 0.845007 16.1383 0.585078 16.4054 0.479807C16.6653 0.367338 16.9671 0.430428 17.1708 0.634114L26.0335 9.49681C26.2368 9.7005 26.2931 10.0026 26.1878 10.2625L26.1879 10.2626Z" fill="#523A28"/>
<path d="M26.2441 11.976V19.2446C26.0123 19.2234 25.7805 19.2093 25.5418 19.2093C20.654 19.2093 16.6721 23.1911 16.6721 28.079C16.6721 31.2112 18.3085 33.964 20.7733 35.5373H1.37646C0.611083 35.5373 0 34.9194 0 34.1608V1.80004C0 1.04153 0.611057 0.423584 1.37646 0.423584H14.6845C14.6074 0.648531 14.5652 0.879992 14.5652 1.12586V9.32131C14.5652 10.8524 15.8154 12.1023 17.3462 12.1023H25.5417C25.7875 12.1023 26.0193 12.0533 26.2439 11.9761L26.2441 11.976Z" fill="#523A28"/>
<path d="M25.5418 20.6138C21.4266 20.6138 18.0768 23.9636 18.0768 28.0789C18.0768 32.1944 21.4266 35.5371 25.5418 35.5371C29.6502 35.5371 33.0001 32.1941 33.0001 28.0789C33.0001 23.9636 29.6502 20.6138 25.5418 20.6138ZM29.2308 26.4442L24.9698 30.7052C24.8382 30.8369 24.6595 30.9109 24.4733 30.9109C24.2871 30.9109 24.1085 30.8369 23.9768 30.7052L21.8463 28.5744C21.5719 28.3001 21.5719 27.8557 21.8463 27.5814C22.1206 27.3071 22.565 27.3071 22.8393 27.5814L24.4732 29.2157L28.2377 25.4512C28.512 25.1769 28.9564 25.1769 29.2307 25.4512C29.505 25.7252 29.505 26.1699 29.2307 26.4442H29.2308Z" fill="#523A28"/>
</svg>
