<svg width="27" height="27" viewBox="0 0 27 27" fill="none" xmlns="http://www.w3.org/2000/svg">
<mask id="mask0_508_246" style="mask-type:luminance" maskUnits="userSpaceOnUse" x="0" y="0" width="27" height="27">
<path d="M27 0H0V27H27V0Z" fill="white"/>
</mask>
<g mask="url(#mask0_508_246)">
<path d="M8.94813 20.2373C9.15063 20.4272 9.26875 20.693 9.27719 20.9714C9.28563 21.2541 9.18016 21.5241 8.99032 21.7266C8.80047 21.9333 8.53469 22.0514 8.25203 22.0598C7.9736 22.0683 7.7036 21.9628 7.5011 21.773C7.04125 21.3426 6.6236 20.8744 6.24813 20.3723C6.07938 20.1487 6.00344 19.8703 6.04563 19.5919C6.0836 19.3134 6.23125 19.0645 6.45485 18.8958C6.67844 18.727 6.95688 18.6553 7.23532 18.6933C7.51375 18.7312 7.76266 18.8789 7.93141 19.1025C8.23516 19.5075 8.57688 19.8872 8.94813 20.2373Z" fill="#A47551"/>
<path d="M20.2161 15.6895C20.4481 15.8456 20.6127 16.0861 20.6675 16.3603C20.7224 16.6345 20.6633 16.9214 20.5072 17.1534C20.3553 17.3855 20.1106 17.55 19.8364 17.6048C19.5622 17.6597 19.2796 17.6006 19.0475 17.4445L14.4921 14.4091C14.2985 14.2796 14.1411 13.986 14.1411 13.7531V7.69922C14.1411 7.42078 14.255 7.15078 14.4533 6.95672C14.6474 6.75844 14.9174 6.64453 15.1958 6.64453C15.4785 6.64453 15.7442 6.75844 15.9425 6.95672C16.1408 7.15078 16.2505 7.42078 16.2505 7.69922V12.6267C16.2505 12.8596 16.4078 13.1532 16.6015 13.2823L20.2161 15.6895Z" fill="#A47551"/>
<path d="M4.07698 12.1019C4.2875 9.9478 5.42276 7.52497 7.26889 5.68265C9.36982 3.57749 12.2259 2.39624 15.1959 2.39624C18.1701 2.39624 21.0262 3.57749 23.1272 5.68265C25.2323 7.78358 26.4136 10.6397 26.4136 13.6139C26.4136 16.5839 25.2323 19.44 23.1272 21.5451C21.0262 23.6461 18.1701 24.8273 15.1959 24.8273C13.6983 24.8316 12.209 24.5278 10.8253 23.9414C10.5679 23.8359 10.3654 23.6292 10.26 23.3676C10.1545 23.1103 10.1587 22.8192 10.2642 22.5619C10.3739 22.3045 10.5806 22.0978 10.8422 21.9966C11.0995 21.8911 11.3906 21.8911 11.6479 22.0008C12.7701 22.4775 13.9767 22.7222 15.1959 22.718C17.6133 22.718 19.9294 21.7603 21.6379 20.0517C23.3423 18.3431 24.3042 16.027 24.3042 13.6139C24.3042 11.1966 23.3423 8.88046 21.6379 7.17186C19.9294 5.46749 17.6133 4.50562 15.1959 4.50562C12.7828 4.50562 10.4667 5.46749 8.75811 7.17186C7.30011 8.62986 6.38886 10.5308 6.20154 12.1403C6.17454 12.3715 6.28676 12.4255 6.45172 12.2614L7.32373 11.3906C7.51779 11.1923 7.78779 11.0784 8.06623 11.0784C8.34889 11.0784 8.61467 11.1923 8.81295 11.3906C9.01123 11.5847 9.12092 11.8547 9.12092 12.1331C9.12092 12.4158 9.01123 12.6816 8.81295 12.8798L5.70921 15.9869C5.38015 16.3164 4.84564 16.3164 4.51657 15.9874L1.40904 12.8798C1.21076 12.6816 1.10107 12.4158 1.10107 12.1331C1.10107 11.8547 1.21076 11.5847 1.40904 11.3906C1.60732 11.1923 1.87732 11.0784 2.15576 11.0784C2.4342 11.0784 2.7042 11.1923 2.90248 11.3906L3.73695 12.2238C3.9019 12.3883 4.0542 12.3335 4.07698 12.1019Z" fill="#A47551"/>
</g>
</svg>
