<svg width="24" height="26" viewBox="0 0 24 26" fill="none" xmlns="http://www.w3.org/2000/svg">
<path d="M19.0457 7.15567C18.9639 7.3447 18.7801 7.47239 18.5759 7.47239L12.6156 7.47214C12.0639 7.47214 11.6145 7.02274 11.6145 6.47108V0.510758C11.6145 0.306511 11.737 0.117472 11.9312 0.0409116C12.1203 -0.0408841 12.3397 0.00499975 12.4879 0.153135L18.9334 6.59873C19.0813 6.74686 19.1222 6.96657 19.0457 7.15561L19.0457 7.15567Z" fill="#A47551"/>
<path d="M19.0866 8.40177V13.688C18.918 13.6726 18.7494 13.6623 18.5758 13.6623C15.0211 13.6623 12.1251 16.5582 12.1251 20.113C12.1251 22.391 13.3152 24.393 15.1078 25.5372H1.00106C0.444424 25.5372 0 25.0878 0 24.5362V1.00106C0 0.449417 0.444405 0 1.00106 0H10.6797C10.6236 0.163598 10.5929 0.331933 10.5929 0.510744V6.47107C10.5929 7.58455 11.5021 8.49361 12.6154 8.49361H18.5757C18.7546 8.49361 18.9231 8.45795 19.0865 8.40184L19.0866 8.40177Z" fill="#A47551"/>
<path d="M18.5758 14.6838C15.5829 14.6838 13.1467 17.1201 13.1467 20.113C13.1467 23.1061 15.5829 25.5372 18.5758 25.5372C21.5637 25.5372 24 23.1059 24 20.113C24 17.1201 21.5637 14.6838 18.5758 14.6838ZM21.2587 18.9242L18.1598 22.023C18.0641 22.1188 17.9341 22.1727 17.7987 22.1727C17.6633 22.1727 17.5334 22.1188 17.4376 22.023L15.8881 20.4734C15.6886 20.2739 15.6886 19.9507 15.8881 19.7512C16.0876 19.5517 16.4108 19.5517 16.6103 19.7512L17.7986 20.9398L20.5364 18.202C20.7359 18.0025 21.0591 18.0025 21.2586 18.202C21.4581 18.4012 21.4581 18.7247 21.2586 18.9242H21.2587Z" fill="#A47551"/>
</svg>
