<svg width="27" height="27" viewBox="0 0 27 27" fill="none" xmlns="http://www.w3.org/2000/svg">
<path d="M6.10935 3.19179H22.0922V1.21845H4.51912C4.24709 1.21845 3.99999 1.32952 3.82091 1.50748C3.64296 1.68656 3.53188 1.93366 3.53188 2.20568C3.53188 2.47658 3.64296 2.72367 3.82091 2.90276C3.99999 3.08071 4.24709 3.19179 4.51912 3.19179H6.10935ZM10.2782 12.8511H19.9375V14.0571H10.2782V12.8511ZM10.2782 9.63094H19.9375V10.8381H10.2782V9.63094ZM23.2982 3.19179H24.7105V26.9887H6.33604C5.26039 26.9887 4.30829 26.202 3.59988 25.1377C2.80193 23.9408 2.28961 22.3494 2.28961 21.2171V2.0334H2.33268C2.37462 1.49954 2.61038 1.01669 2.96968 0.65852L2.97195 0.655119C3.36979 0.258411 3.91725 0.0124512 4.51912 0.0124512H23.2982V3.19179ZM6.71235 25.7815H23.5045V4.39892H23.2982H6.71235V25.7815Z" fill="#A47551"/>
</svg>
