<svg width="52" height="40" viewBox="0 0 52 40" fill="none" xmlns="http://www.w3.org/2000/svg">
<path fill-rule="evenodd" clip-rule="evenodd" d="M13.0222 28.4924C13.0136 28.285 12.978 27.5898 12.951 27.2592C12.834 25.8239 12.8389 25.8235 12.6482 24.186C12.5693 23.5039 12.0775 22.9912 11.404 22.9912C10.735 22.9912 10.2579 23.5203 10.1613 24.1717C10.1605 24.177 10.1601 24.1819 10.1593 24.1873C10.1593 24.1873 9.97353 25.8248 9.85692 27.2593C9.82664 27.632 9.80045 27.9884 9.79023 28.3002C9.77181 28.8559 9.7845 29.263 9.78695 29.3387C9.78695 29.3407 9.78736 29.3424 9.78736 29.3444C9.79104 29.9181 10.0983 30.4475 10.5955 30.7347C10.6032 30.7392 10.611 30.7433 10.6188 30.7474C10.6188 30.7474 11.2902 31.0842 11.9878 31.3783C12.6973 31.6774 12.6969 31.6779 13.4077 31.9225C14.0411 32.1406 14.7003 32.0031 15.0317 31.4295C15.3607 30.8595 15.0935 30.1869 14.6557 29.7851C14.6524 29.7822 14.6491 29.7793 14.6463 29.7765C14.6463 29.7765 14.0787 29.2842 13.4654 28.8194C13.3157 28.7057 13.1643 28.5952 13.0215 28.4929L13.0222 28.4924Z" fill="#523A28"/>
<path fill-rule="evenodd" clip-rule="evenodd" d="M10.9848 19.4665L11.1219 20.5148C11.1219 20.692 11.2655 20.8356 11.4426 20.8356C11.6198 20.8356 11.7634 20.692 11.7634 20.5148L11.9005 19.4665C11.9005 19.214 11.6955 19.009 11.4431 19.009C11.1906 19.009 10.9852 19.214 10.9852 19.4665H10.9848Z" fill="#523A28"/>
<path fill-rule="evenodd" clip-rule="evenodd" d="M2.53282 28.8347L3.58113 28.6976C3.7583 28.6976 3.90191 28.554 3.90191 28.3768C3.90191 28.1996 3.7583 28.056 3.58113 28.056L2.53282 27.9189C2.28035 27.9189 2.07536 28.1239 2.07536 28.3764C2.07536 28.6289 2.28035 28.8343 2.53282 28.8343V28.8347Z" fill="#523A28"/>
<path fill-rule="evenodd" clip-rule="evenodd" d="M11.4426 16.9346C5.12706 16.9346 0 22.0618 0 28.3772C0 34.6927 5.12727 39.8197 11.4426 39.8197C17.7577 39.8197 22.8852 34.6925 22.8852 28.3772C22.8852 22.062 17.7579 16.9346 11.4426 16.9346ZM11.4426 19.9248C16.1075 19.9248 19.8947 23.7124 19.8947 28.3769C19.8947 33.0419 16.1071 36.8291 11.4426 36.8291C6.77767 36.8291 2.99043 33.0419 2.99043 28.3769C2.99043 23.712 6.77767 19.9248 11.4426 19.9248Z" fill="#523A28"/>
<path fill-rule="evenodd" clip-rule="evenodd" d="M20.3534 27.9192L19.3051 28.0563C19.1279 28.0563 18.9843 28.1999 18.9843 28.3771C18.9843 28.5542 19.1279 28.6978 19.3051 28.6978L20.3534 28.8349C20.6058 28.8349 20.8108 28.6299 20.8108 28.3771C20.8108 28.1246 20.6058 27.9196 20.3534 27.9196V27.9192Z" fill="#523A28"/>
<path fill-rule="evenodd" clip-rule="evenodd" d="M22.0295 22.0009C22.061 21.9923 22.0929 21.9837 22.1244 21.9759C22.6101 21.8524 23.1187 21.7877 23.6424 21.7902C25.3069 21.7861 26.8041 22.4698 27.9104 23.5468C28.1944 23.823 28.4554 24.1217 28.6879 24.4441C28.9207 24.7669 29.1277 25.1078 29.3024 25.4707C29.6478 26.188 29.8802 26.9715 29.9354 27.8148C29.9354 27.9286 30.0279 28.0211 30.1416 28.0211C30.2554 28.0211 30.3479 27.9286 30.3479 27.8148C30.3867 27.2702 30.3597 26.7395 30.2701 26.2239C30.1764 25.6847 30.0132 25.1687 29.7902 24.6822C29.4858 24.0177 29.0676 23.4138 28.5639 22.8933C27.3237 21.6118 25.5651 20.8458 23.6425 20.8409L23.615 20.8413C24.5054 17.9071 27.2333 15.7692 30.4571 15.7692C30.861 15.7692 31.2575 15.8028 31.6433 15.8674C31.7787 15.8899 31.9174 15.8506 32.0205 15.7598C33.3557 14.5876 35.1048 13.8772 37.0194 13.8772C41.0063 13.8772 44.2785 16.9607 44.5792 20.8715C43.6782 20.9582 42.8264 21.2135 42.0632 21.617C41.4171 21.9586 40.8328 22.4026 40.3344 22.9284C39.8402 23.4501 39.4269 24.0487 39.1225 24.7074C38.6863 25.6506 38.4658 26.7071 38.5161 27.8151C38.5161 27.9288 38.6086 28.0213 38.7223 28.0213C38.8361 28.0213 38.9286 27.9288 38.9286 27.8151C38.9678 26.9693 39.181 26.176 39.5165 25.4521C39.8578 24.7152 40.3382 24.0614 40.9192 23.5119C41.3795 23.0765 41.9053 22.7128 42.479 22.43C43.3067 22.0217 44.2363 21.786 45.2221 21.7926C46.8841 21.7917 48.3886 22.4673 49.4811 23.5557C50.5752 24.6457 51.2582 26.1498 51.2639 27.8147C51.2639 31.149 48.5564 33.8565 45.2221 33.8565H23.6432C23.2765 33.8565 22.9177 33.8238 22.5687 33.7608C23.3588 32.1327 23.8018 30.3062 23.8018 28.3765C23.8018 26.0447 23.1545 23.8626 22.0302 22.0009L22.0295 22.0009Z" fill="#523A28"/>
<path fill-rule="evenodd" clip-rule="evenodd" d="M2.54854 19.8014C1.51989 18.623 0.896362 17.0829 0.896362 15.398C0.902091 13.5514 1.65864 11.8824 2.87221 10.6729C4.08372 9.46549 5.75318 8.71582 7.59725 8.71665C8.6906 8.71011 9.72205 8.97157 10.6394 9.42574C11.2749 9.73998 11.8571 10.1451 12.3661 10.6291C13.0077 11.2391 13.5367 11.9659 13.9119 12.7829C14.2794 13.584 14.5101 14.4629 14.5498 15.3983C14.5498 15.5121 14.6423 15.6045 14.7561 15.6045C14.8698 15.6045 14.9623 15.5121 14.9623 15.3983C15.0048 14.3914 14.8444 13.4236 14.5126 12.5341C14.1648 11.6004 13.6268 10.7567 12.9504 10.0455C12.4042 9.47064 11.763 8.98622 11.0551 8.61301C10.0228 8.06881 8.84358 7.77052 7.59719 7.76275C7.5665 7.76275 7.53581 7.76316 7.50472 7.76357C8.47199 4.48205 11.5096 2.08428 15.1026 2.08428C15.5506 2.08428 15.9896 2.12152 16.4172 2.19312C16.5527 2.21563 16.6914 2.17635 16.7945 2.08552C18.2732 0.787175 20.2106 0 22.3309 0C26.7622 0 30.3964 3.43948 30.707 7.79183C29.4943 7.89985 28.3616 8.28734 27.385 8.90393C26.8784 9.2239 26.4136 9.60443 26.0028 10.0361C25.4594 10.6077 25.0036 11.2637 24.6686 11.9858C24.1882 13.0206 23.946 14.1806 24 15.3978C24 15.5116 24.0924 15.6041 24.2062 15.6041C24.3199 15.6041 24.4124 15.5116 24.4124 15.3978C24.455 14.4633 24.6898 13.586 25.0589 12.7865C25.4354 11.971 25.964 11.2468 26.6048 10.6379C26.9869 10.275 27.41 9.95624 27.8646 9.68455C28.8895 9.07202 30.0843 8.71113 31.3646 8.71809C32.8912 8.71645 34.2988 9.22914 35.4264 10.0896C36.3969 10.8302 37.1612 11.8278 37.6138 12.9825C37.417 12.9685 37.219 12.9616 37.0189 12.9616C34.9505 12.9616 33.0544 13.7018 31.5798 14.9321C31.2132 14.8805 30.838 14.8539 30.4562 14.8539C26.6914 14.8539 23.5257 17.4399 22.6398 20.9301C22.2478 20.987 21.8661 21.0762 21.4983 21.1957C19.2552 18.0623 15.5858 16.0193 11.443 16.0193C7.95153 16.0193 4.79644 17.4702 2.54804 19.802L2.54854 19.8014Z" fill="#523A28"/>
</svg>
