<svg width="34" height="27" viewBox="0 0 34 27" fill="none" xmlns="http://www.w3.org/2000/svg">
<path fill-rule="evenodd" clip-rule="evenodd" d="M8.63678 19.1908C8.63108 19.0532 8.60747 18.5922 8.58956 18.3729C8.51195 17.421 8.51521 17.4207 8.38875 16.3346C8.33637 15.8823 8.01018 15.5422 7.56349 15.5422C7.11979 15.5422 6.80339 15.8931 6.73934 16.3252C6.7388 16.3287 6.73853 16.332 6.73798 16.3355C6.73798 16.3355 6.61478 17.4216 6.53744 18.373C6.51736 18.6202 6.49999 18.8566 6.4932 19.0634C6.48099 19.4319 6.4894 19.7019 6.49103 19.7521C6.49103 19.7535 6.4913 19.7545 6.4913 19.7559C6.49375 20.1364 6.69755 20.4875 7.02727 20.678C7.03242 20.681 7.03758 20.6837 7.04274 20.6864C7.04274 20.6864 7.48807 20.9098 7.95074 21.1049C8.4213 21.3033 8.42103 21.3035 8.89243 21.4658C9.31252 21.6104 9.74971 21.5193 9.96952 21.1388C10.1877 20.7608 10.0105 20.3147 9.72013 20.0482C9.71796 20.0463 9.71579 20.0444 9.71389 20.0425C9.71389 20.0425 9.33749 19.716 8.93073 19.4077C8.83141 19.3323 8.731 19.259 8.63629 19.1912L8.63678 19.1908Z" fill="#A47551"/>
<path fill-rule="evenodd" clip-rule="evenodd" d="M7.28552 13.2045L7.37643 13.8998C7.37643 14.0173 7.47169 14.1126 7.58919 14.1126C7.7067 14.1126 7.80195 14.0173 7.80195 13.8998L7.89286 13.2045C7.89286 13.0371 7.7569 12.9011 7.58946 12.9011C7.42202 12.9011 7.28579 13.0371 7.28579 13.2045H7.28552Z" fill="#A47551"/>
<path fill-rule="evenodd" clip-rule="evenodd" d="M1.67983 19.4179L2.37511 19.327C2.49261 19.327 2.58787 19.2317 2.58787 19.1142C2.58787 18.9967 2.49261 18.9015 2.37511 18.9015L1.67983 18.8105C1.51239 18.8105 1.37643 18.9465 1.37643 19.1139C1.37643 19.2814 1.51239 19.4176 1.67983 19.4176V19.4179Z" fill="#A47551"/>
<path fill-rule="evenodd" clip-rule="evenodd" d="M7.58913 11.5254C3.40045 11.5254 0 14.926 0 19.1145C0 23.3032 3.40059 26.7036 7.58913 26.7036C11.7775 26.7036 15.1783 23.3031 15.1783 19.1145C15.1783 14.9261 11.7777 11.5254 7.58913 11.5254ZM7.58913 13.5086C10.6831 13.5086 13.1949 16.0207 13.1949 19.1144C13.1949 22.2083 10.6828 24.7201 7.58913 24.7201C4.49519 24.7201 1.98336 22.2083 1.98336 19.1144C1.98336 16.0204 4.49519 13.5086 7.58913 13.5086Z" fill="#A47551"/>
<path fill-rule="evenodd" clip-rule="evenodd" d="M13.4991 18.8108L12.8039 18.9017C12.6863 18.9017 12.5911 18.997 12.5911 19.1145C12.5911 19.232 12.6863 19.3272 12.8039 19.3272L13.4991 19.4181C13.6666 19.4181 13.8025 19.2822 13.8025 19.1145C13.8025 18.947 13.6666 18.8111 13.4991 18.8111V18.8108Z" fill="#A47551"/>
<path fill-rule="evenodd" clip-rule="evenodd" d="M14.6107 14.8855C14.6316 14.8798 14.6528 14.8741 14.6736 14.8689C14.9958 14.787 15.3331 14.7441 15.6804 14.7457C16.7844 14.743 17.7774 15.1965 18.5111 15.9108C18.6995 16.094 18.8726 16.2921 19.0268 16.5059C19.1812 16.72 19.3185 16.9461 19.4344 17.1868C19.6634 17.6625 19.8175 18.1822 19.8542 18.7415C19.8542 18.8169 19.9155 18.8783 19.991 18.8783C20.0664 18.8783 20.1277 18.8169 20.1277 18.7415C20.1535 18.3803 20.1356 18.0283 20.0762 17.6864C20.014 17.3287 19.9058 16.9865 19.7579 16.6638C19.556 16.2231 19.2786 15.8226 18.9445 15.4774C18.122 14.6274 16.9556 14.1194 15.6805 14.1161L15.6623 14.1164C16.2528 12.1703 18.0621 10.7524 20.2002 10.7524C20.468 10.7524 20.731 10.7747 20.9869 10.8175C21.0767 10.8325 21.1687 10.8064 21.2371 10.7462C22.1226 9.96872 23.2827 9.49756 24.5525 9.49756C27.1968 9.49756 29.367 11.5427 29.5665 14.1364C28.9689 14.1939 28.4039 14.3633 27.8977 14.6309C27.4692 14.8575 27.0817 15.1519 26.7512 15.5007C26.4234 15.8467 26.1493 16.2437 25.9474 16.6806C25.6581 17.3061 25.5118 18.0068 25.5452 18.7417C25.5452 18.8171 25.6065 18.8784 25.682 18.8784C25.7574 18.8784 25.8188 18.8171 25.8188 18.7417C25.8448 18.1807 25.9862 17.6546 26.2087 17.1744C26.4351 16.6857 26.7536 16.2521 27.139 15.8876C27.4443 15.5989 27.793 15.3576 28.1735 15.1701C28.7225 14.8993 29.3391 14.743 29.9929 14.7473C31.0952 14.7468 32.093 15.1948 32.8176 15.9167C33.5432 16.6396 33.9962 17.6372 34 18.7414C34 20.9528 32.2043 22.7485 29.9929 22.7485H15.6809C15.4378 22.7485 15.1998 22.7268 14.9683 22.685C15.4923 21.6052 15.7862 20.3938 15.7862 19.114C15.7862 17.5674 15.3569 16.1202 14.6111 14.8855L14.6107 14.8855Z" fill="#A47551"/>
<path fill-rule="evenodd" clip-rule="evenodd" d="M1.69027 13.4267C1.00803 12.6451 0.594482 11.6237 0.594482 10.5062C0.598282 9.28144 1.10005 8.17455 1.90493 7.37235C2.70845 6.57155 3.81569 6.07434 5.03875 6.07489C5.7639 6.07055 6.44799 6.24396 7.05642 6.54518C7.47787 6.7536 7.86404 7.02226 8.2016 7.34328C8.62712 7.7479 8.97802 8.22988 9.22687 8.77176C9.47056 9.30311 9.62362 9.88602 9.64994 10.5064C9.64994 10.5818 9.71127 10.6432 9.78672 10.6432C9.86216 10.6432 9.92349 10.5819 9.92349 10.5064C9.95172 9.83855 9.84534 9.19672 9.62525 8.60677C9.39458 7.98749 9.03772 7.42789 8.58914 6.95625C8.22686 6.57497 7.80161 6.25368 7.33212 6.00615C6.64744 5.64522 5.86535 5.44739 5.03871 5.44223C5.01835 5.44223 4.998 5.4425 4.97737 5.44277C5.61891 3.26635 7.63357 1.67607 10.0165 1.67607C10.3137 1.67607 10.6049 1.70077 10.8885 1.74826C10.9783 1.76318 11.0703 1.73713 11.1387 1.67689C12.1194 0.815783 13.4044 0.293701 14.8106 0.293701C17.7496 0.293701 20.16 2.57489 20.366 5.46152C19.5616 5.53316 18.8104 5.79016 18.1627 6.1991C17.8267 6.41132 17.5184 6.6637 17.246 6.95003C16.8856 7.32913 16.5833 7.76417 16.361 8.24311C16.0424 8.92942 15.8818 9.69876 15.9176 10.5061C15.9176 10.5815 15.9789 10.6429 16.0544 10.6429C16.1298 10.6429 16.1912 10.5815 16.1912 10.5061C16.2194 9.88627 16.3752 9.30443 16.6199 8.77415C16.8696 8.2333 17.2202 7.75298 17.6452 7.34914C17.8987 7.10844 18.1793 6.89703 18.4807 6.71684C19.1605 6.31058 19.9529 6.07123 20.8021 6.07585C21.8146 6.07476 22.7481 6.41479 23.496 6.98551C24.1397 7.4767 24.6466 8.13833 24.9468 8.90412C24.8163 8.89489 24.6849 8.89028 24.5522 8.89028C23.1804 8.89028 21.9228 9.3812 20.9448 10.1972C20.7016 10.163 20.4528 10.1454 20.1996 10.1454C17.7027 10.1454 15.603 11.8605 15.0155 14.1753C14.7555 14.213 14.5023 14.2722 14.2584 14.3514C12.7707 12.2732 10.337 10.9182 7.58936 10.9182C5.27372 10.9182 3.18115 11.8806 1.68993 13.4271L1.69027 13.4267Z" fill="#A47551"/>
</svg>
