<svg width="27" height="27" viewBox="0 0 27 27" fill="none" xmlns="http://www.w3.org/2000/svg">
<path d="M24.1068 0H4.82017C3.22287 0 1.92972 1.29595 1.92972 2.89327V5.78655H0.963466C0.431946 5.78655 0 6.21853 0 6.75003C0 7.28152 0.431981 7.7135 0.963466 7.7135H1.92972V12.5365H0.963466C0.431946 12.5365 0 12.9685 0 13.5C0 14.0315 0.431981 14.4635 0.963466 14.4635H1.92972V19.2865H0.963466C0.431946 19.2865 0 19.7185 0 20.25C0 20.7815 0.431981 21.2135 0.963466 21.2135H1.92972V24.1067C1.92972 25.704 3.22287 27 4.82017 27H24.1068C25.7041 27 27 25.704 27 24.1067V2.89338C27 1.29606 25.7041 0.000101497 24.1068 0.000101497V0ZM14.4635 5.84461C16.5883 5.84461 18.3125 7.56881 18.3125 9.69365C18.3125 11.8185 16.5883 13.5427 14.4635 13.5427C12.3387 13.5427 10.6145 11.8187 10.6145 9.69365C10.6145 7.56881 12.3387 5.84461 14.4635 5.84461ZM19.5939 22.2918H9.33249V18.7642C9.34002 16.8056 10.4591 15.0247 12.2212 14.1665C13.6616 14.7375 15.2686 14.7375 16.7091 14.1665C18.471 15.0247 19.5903 16.8056 19.594 18.7642L19.5939 22.2918Z" fill="white"/>
</svg>
