<svg width="29" height="19" viewBox="0 0 29 19" fill="none" xmlns="http://www.w3.org/2000/svg">
<path d="M15.4666 3.41688e-05C14.0959 0.00109444 12.7497 0.359996 11.5668 1.04042C10.3835 1.72082 9.40553 2.69817 8.73314 3.8721C8.40193 3.82677 8.06775 3.80265 7.73333 3.8C5.68241 3.8 3.71538 4.60078 2.26511 6.02605C0.814831 7.45133 0 9.38444 0 11.4C0 13.4156 0.814831 15.3487 2.26511 16.7739C3.71538 18.1992 5.68241 19 7.73333 19H23.2C24.7382 19 26.2136 18.3994 27.3013 17.3306C28.3888 16.2616 29 14.8117 29 13.3C29 11.7883 28.3888 10.3384 27.3013 9.26942C26.2135 8.20067 24.7382 7.6 23.2 7.6C23.2 5.58444 22.3852 3.65133 20.9349 2.22605C19.4846 0.800783 17.5176 0 15.4667 0L15.4666 3.41688e-05ZM14.4991 5.70003H14.5007C14.5633 5.70003 14.6243 5.70719 14.6833 5.71779C14.6847 5.71806 14.686 5.71832 14.6871 5.71859C14.7445 5.72999 14.7988 5.74642 14.8519 5.76683C14.8551 5.76816 14.8592 5.76842 14.8624 5.76975C14.8638 5.77028 14.8648 5.77081 14.8662 5.77134C14.9247 5.79466 14.9803 5.82382 15.0323 5.85748C15.09 5.89459 15.1429 5.93753 15.1909 5.98577L17.9189 8.66586C18.2975 9.03801 18.2975 9.63785 17.9189 10.01C17.5402 10.3822 16.9298 10.3822 16.5511 10.01L15.4666 8.94339V14.25C15.4666 14.7764 15.0356 15.2 14.4999 15.2C13.9642 15.2 13.5332 14.7764 13.5332 14.25V8.94339L12.4487 10.01C12.07 10.3822 11.4597 10.3822 11.0809 10.01C10.7022 9.63789 10.7022 9.03805 11.0809 8.66586L13.8089 5.98577C13.8569 5.93753 13.9097 5.89459 13.9675 5.85748C14.0195 5.82355 14.0751 5.79466 14.1336 5.77134C14.135 5.77081 14.136 5.77028 14.1374 5.76975C14.1406 5.76842 14.1447 5.76816 14.1479 5.76683C14.201 5.74642 14.2552 5.72946 14.3127 5.71859C14.3132 5.71832 14.314 5.71806 14.3149 5.71779C14.3154 5.71779 14.3159 5.71806 14.3165 5.71779C14.3766 5.7064 14.4379 5.7003 14.4991 5.70003Z" fill="white"/>
</svg>
