<svg width="13" height="19" viewBox="0 0 13 19" fill="none" xmlns="http://www.w3.org/2000/svg">
<path d="M11.0499 0H1.94998C1.43273 0 0.936843 0.206935 0.571065 0.575215C0.205442 0.94364 0 1.44314 0 1.96415V17.5988C0.000870544 17.9375 0.123469 18.2644 0.345165 18.5192C0.56686 18.7738 0.872698 18.9391 1.20598 18.9841C1.53926 19.0291 1.87744 18.951 2.15805 18.7643L6.5 15.8442L10.8419 18.7643C11.0709 18.9186 11.3402 19.0006 11.6156 19C11.9822 18.9949 12.3324 18.8454 12.5911 18.5835C12.8498 18.3217 12.9967 17.9682 13 17.5988V1.96418C13 1.44317 12.7946 0.943681 12.4289 0.575245C12.0632 0.206965 11.5673 2.98992e-05 11.05 2.98992e-05L11.0499 0ZM11.6999 17.5988C11.701 17.6316 11.6833 17.6622 11.6543 17.6774C11.6279 17.6993 11.5897 17.6993 11.5633 17.6774L6.85739 14.5216C6.75133 14.4513 6.62699 14.4137 6.4999 14.4137C6.3728 14.4137 6.24846 14.4513 6.1424 14.5216L1.43645 17.6774C1.41005 17.6993 1.37189 17.6993 1.34548 17.6774C1.31647 17.6622 1.29877 17.6316 1.29993 17.5988V1.96415C1.29993 1.79053 1.36841 1.62393 1.49028 1.50117C1.61215 1.37841 1.77755 1.30943 1.94992 1.30943H11.0498C11.2222 1.30943 11.3876 1.37841 11.5095 1.50117C11.6313 1.62393 11.6998 1.79053 11.6998 1.96415L11.6999 17.5988ZM9.74989 7.85659C9.74989 8.03021 9.6814 8.19681 9.55953 8.31957C9.43766 8.44233 9.27226 8.51131 9.0999 8.51131H7.14992V10.4755C7.14992 10.7094 7.02601 10.9256 6.82492 11.0425C6.62383 11.1594 6.37602 11.1594 6.17493 11.0425C5.97384 10.9256 5.84993 10.7094 5.84993 10.4755V8.51131H3.89996C3.66767 8.51131 3.45309 8.3865 3.33702 8.18395C3.22095 7.98139 3.22095 7.73178 3.33702 7.52923C3.45309 7.32668 3.66768 7.20187 3.89996 7.20187H5.84993V5.23773C5.84993 5.00375 5.97384 4.78762 6.17493 4.67071C6.37602 4.55379 6.62383 4.55379 6.82492 4.67071C7.02601 4.78762 7.14992 5.00376 7.14992 5.23773V7.20187H9.0999C9.27226 7.20187 9.43766 7.27086 9.55953 7.39361C9.6814 7.51637 9.74989 7.68297 9.74989 7.85659Z" fill="#523A28"/>
</svg>
