<svg width="20" height="20" viewBox="0 0 20 20" fill="none" xmlns="http://www.w3.org/2000/svg">
<path d="M8.03089 4.03833C6.97264 4.0395 5.9578 4.46053 5.20947 5.20886C4.46114 5.95719 4.0401 6.97203 4.03894 8.03028C4.03894 8.38682 4.22924 8.7163 4.538 8.89457C4.84676 9.07284 5.22718 9.07284 5.53594 8.89457C5.8447 8.7163 6.035 8.38683 6.035 8.03028C6.0355 7.50116 6.24602 6.99376 6.62012 6.61951C6.99437 6.24542 7.50177 6.03491 8.03089 6.03439C8.38743 6.03439 8.71691 5.84409 8.89518 5.53533C9.07345 5.22657 9.07345 4.84616 8.89518 4.53739C8.71691 4.22863 8.38744 4.03833 8.03089 4.03833Z" fill="#14397D"/>
<path d="M16.0398 14.6281C17.4771 12.8302 18.1712 10.5501 17.9797 8.25602C17.7883 5.96222 16.7257 3.82874 15.0101 2.29409C13.2948 0.759324 11.0566 -0.0603501 8.75564 0.00346504C6.45466 0.0674555 4.26548 1.00992 2.63759 2.63759C1.00992 4.26526 0.0674521 6.45444 0.0034659 8.75563C-0.0603578 11.0564 0.759324 13.2945 2.2941 15.0101C3.82887 16.7256 5.96244 17.7883 8.25602 17.9797C10.55 18.1712 12.83 17.477 14.6281 16.0398L18.303 19.7145C18.5558 19.9628 18.9213 20.0584 19.2633 19.9656C19.6053 19.8729 19.8725 19.6057 19.9652 19.2637C20.0579 18.9217 19.9624 18.5562 19.7141 18.3034L16.0398 14.6281ZM2.04286 9.02847C2.04286 7.17561 2.779 5.39875 4.08905 4.08836C5.39927 2.77831 7.17613 2.04217 9.02916 2.04217C10.8819 2.04217 12.6589 2.77831 13.9688 4.08836C15.2791 5.39858 16.015 7.17544 16.015 9.02847C16.015 10.8812 15.2791 12.6582 13.9688 13.9682C12.6588 15.2784 10.8818 16.0143 9.02916 16.0143C7.17694 16.0123 5.40128 15.2756 4.09161 13.9658C2.78191 12.6563 2.04525 10.8804 2.04307 9.02826L2.04286 9.02847Z" fill="#14397D"/>
</svg>
