<svg width="63" height="41" viewBox="0 0 63 41" fill="none" xmlns="http://www.w3.org/2000/svg">
<path d="M33.5998 7.37326e-05C30.622 0.00236168 27.6976 0.776833 25.1278 2.24512C22.5573 3.71336 20.4327 5.82237 18.972 8.35558C18.2525 8.25777 17.5265 8.20573 16.8 8.2C12.3446 8.2 8.07135 9.928 4.92075 13.0036C1.77015 16.0792 0 20.2506 0 24.6C0 28.9494 1.77015 33.1208 4.92075 36.1964C8.07135 39.272 12.3446 41 16.8 41H50.4C53.7416 41 56.9468 39.7039 59.3097 37.3976C61.6722 35.0907 63 31.962 63 28.7C63 25.438 61.6723 22.3091 59.3097 20.0024C56.9466 17.6962 53.7416 16.4 50.4 16.4C50.4 12.0506 48.6299 7.87918 45.4793 4.80359C42.3287 1.728 38.0555 0 33.6 0L33.5998 7.37326e-05ZM31.4981 12.3001H31.5016C31.6375 12.3001 31.7699 12.3155 31.8982 12.3384C31.9012 12.339 31.9041 12.3395 31.9064 12.3401C32.0312 12.3647 32.149 12.4002 32.2645 12.4442C32.2715 12.4471 32.2803 12.4476 32.2873 12.4505C32.2902 12.4516 32.2926 12.4528 32.2955 12.4539C32.4227 12.5043 32.5433 12.5672 32.6564 12.6398C32.7818 12.7199 32.8967 12.8126 33.001 12.9167L38.9272 18.7C39.7498 19.5031 39.7498 20.7975 38.9272 21.6006C38.1045 22.4038 36.7786 22.4037 35.9558 21.6006L33.5998 19.2989V30.7501C33.5998 31.886 32.6634 32.8001 31.4998 32.8001C30.3361 32.8001 29.3998 31.886 29.3998 30.7501V19.2989L27.0437 21.6006C26.2211 22.4037 24.8951 22.4037 24.0724 21.6006C23.2496 20.7975 23.2497 19.5032 24.0724 18.7L29.9986 12.9167C30.1029 12.8126 30.2177 12.7199 30.3431 12.6398C30.4562 12.5666 30.5769 12.5043 30.704 12.4539C30.707 12.4528 30.7093 12.4516 30.7122 12.4505C30.7193 12.4476 30.7281 12.4471 30.7351 12.4442C30.8505 12.4002 30.9683 12.3636 31.0931 12.3401C31.0943 12.3395 31.096 12.339 31.0978 12.3384C31.0989 12.3384 31.1001 12.339 31.1013 12.3384C31.232 12.3138 31.365 12.3006 31.4981 12.3001Z" fill="#523A28"/>
</svg>
