<svg width="21" height="22" viewBox="0 0 21 22" fill="none" xmlns="http://www.w3.org/2000/svg">
<path d="M10.0493 11.055C7.02432 11.055 4.54932 8.58 4.54932 5.555C4.54932 2.53 7.02432 0 10.0493 0C13.0743 0 15.5493 2.475 15.5493 5.5C15.5493 8.525 13.0743 11.055 10.0493 11.055ZM10.0493 1.1C7.62932 1.1 5.64932 3.08 5.64932 5.5C5.64932 7.92 7.62932 9.90001 10.0493 9.90001C12.4693 9.90001 14.4493 7.92 14.4493 5.5C14.4493 3.08 12.4693 1.1 10.0493 1.1Z" fill="#D0B49F"/>
<path d="M17.2543 22H2.95432C2.45932 22 1.96432 21.835 1.52432 21.56C0.314316 20.68 -0.235684 19.25 0.0943163 17.82C0.754317 14.96 1.90932 13.035 3.99932 11.055C4.71432 10.395 5.75932 10.34 6.58432 10.835C8.67432 12.155 11.4243 12.155 13.5143 10.835C14.2843 10.34 15.3843 10.395 16.0443 11C17.9693 12.705 19.2893 15.015 19.9493 17.82C20.3343 19.36 19.6193 20.9 18.2993 21.725C18.0243 21.89 17.6393 22 17.2543 22ZM5.42932 11.605C5.20932 11.605 4.93432 11.715 4.76932 11.88C2.78932 13.695 1.79932 15.455 1.19432 18.095C0.974317 19.085 1.35932 20.075 2.18432 20.68C2.34932 20.79 2.62432 20.9 2.95432 20.9H17.3093C17.4743 20.9 17.6393 20.845 17.8043 20.79C18.7393 20.24 19.1793 19.14 18.9593 18.095C18.3543 15.51 17.1443 13.42 15.3843 11.825C15.1093 11.55 14.5043 11.495 14.1743 11.77C12.9643 12.595 11.5343 12.98 10.1043 12.98C8.67432 12.98 7.29932 12.54 6.08932 11.77C5.81432 11.66 5.64932 11.605 5.42932 11.605Z" fill="#D0B49F"/>
</svg>
